# xmcd CD database file
#
# Track frame offsets:
#	150
#	26765
#	39741
#	56520
#	66955
#	90880
#	120277
#	132053
#	152565
#	168154
#	195588
#	211327
#
# Disc length: 3126 seconds
#
# Revision: 8
# Processed by: cddbd v1.5.2PL0 Copyright (c) Steve Scherf et al.
# Submitted via: CDex 1.51
#
DISCID=930c340c
DTITLE=Didier Squiban - Rozbras
DYEAR=2001
DGENRE=Jazz
TTITLE0=A Dan et Pascal
TTITLE1=A Armel, Glenn and Johanna
TTITLE2=A Rv-Lo
TTITLE3=A Edith
TTITLE4=A Pierre-Yves Moign
TTITLE5=A José Nédélec
TTITLE6=A Thersi
TTITLE7=A Catherine et Christophe
TTITLE8=A Jean-Bernard Vighetti
TTITLE9=A Stéphane Riou
TTITLE10=A Glenmor
TTITLE11=A Alain Le Pennec
EXTD=YEAR: 2001
EXTT0=
EXTT1=
EXTT2=
EXTT3=
EXTT4=
EXTT5=
EXTT6=
EXTT7=
EXTT8=
EXTT9=
EXTT10=
EXTT11=
PLAYORDER=
